<svg width="600" height="144" viewBox="0 0 600 144" fill="none" xmlns="http://www.w3.org/2000/svg">
<path d="M98.6753 1.12887C91.4753 2.72887 90.942 3.12887 93.4753 6.0622C94.6753 7.39553 96.2753 9.92887 97.2087 11.7955C98.942 14.9955 98.8087 14.9955 94.4087 11.2622C85.2087 3.52887 74.542 1.6622 65.4753 6.32887C52.6753 12.8622 47.2087 27.6622 52.542 40.8622C53.742 43.6622 60.6753 51.7955 68.2753 59.3955C80.0087 71.2622 82.4087 73.1289 86.2753 73.1289C93.4753 73.1289 99.742 63.7955 100.009 52.3289V48.4622L101.342 51.7955C103.075 55.9289 102.009 65.1289 99.2087 70.5955C96.8087 75.1289 90.0087 79.7955 85.4753 79.7955C80.542 79.7955 77.342 77.3955 64.6753 64.7289L52.6753 52.7289L41.0753 64.8622C27.8753 78.7289 21.8753 89.1289 19.4753 102.996C18.0087 111.929 18.4087 114.996 23.2087 130.062C24.142 132.996 23.742 133.129 18.2753 133.129C13.742 133.129 11.6087 132.329 9.20866 129.796C6.54199 126.996 6.27533 126.062 7.60866 123.129C8.80866 120.462 8.67533 118.596 6.94199 114.196L4.80866 108.729L2.27533 111.796C-0.924673 115.796 -0.79134 121.929 2.94199 128.329C7.60866 136.729 12.0087 139.129 22.2753 139.262C27.342 139.396 33.342 140.329 36.142 141.662C42.2753 144.329 49.4753 144.329 63.0753 141.796C72.4087 139.929 74.942 139.929 86.142 141.796C93.0753 142.862 99.342 143.396 100.142 142.996C102.675 141.396 105.209 133.262 105.209 126.596C105.209 121.529 104.409 119.129 102.009 116.329L98.942 112.596L89.342 114.329C84.0087 115.262 79.4753 115.796 79.0753 115.396C78.6753 115.129 77.0753 112.196 75.4753 108.996C71.4753 101.129 65.342 97.1289 56.6753 96.9955C48.2753 96.8622 52.142 94.7289 60.942 94.5955C68.8087 94.4622 75.342 97.7955 79.4753 103.929L82.8087 108.996L91.742 108.196C102.275 107.262 105.342 108.596 108.409 114.996C110.809 119.929 111.209 131.396 109.342 138.062C108.409 140.996 108.542 142.462 109.742 142.862C112.142 143.796 123.875 141.662 125.609 139.929C127.209 138.329 127.209 138.596 120.675 116.596C115.475 98.8622 115.875 81.6622 122.009 75.1289C124.409 72.4622 126.409 71.7955 131.342 71.7955H137.609L134.942 68.7289C131.609 65.1289 128.809 59.7955 129.609 58.8622C130.009 58.5955 133.075 60.4622 136.409 62.9955C152.809 75.3955 175.342 71.9289 183.609 55.7955C186.275 50.4622 187.742 38.7289 185.875 36.8622C185.475 36.4622 183.075 36.8622 180.542 37.6622C176.409 38.9955 175.875 39.6622 175.875 43.5289C175.875 49.6622 170.809 54.4622 164.409 54.4622C156.542 54.4622 150.542 47.3955 145.342 31.5289C140.409 16.7289 133.075 6.99553 124.142 3.39553C117.475 0.728866 105.875 -0.3378 98.6753 1.12887ZM129.209 34.3289C131.075 37.9289 131.209 37.7955 125.209 37.7955C119.742 37.9289 118.542 36.3289 121.475 33.3955C123.875 30.9955 127.609 31.5289 129.209 34.3289Z" fill="#163655"/>
<path d="M163.875 1.52894C163.875 2.46227 166.542 4.1956 169.875 5.52894C177.075 8.06227 176.542 6.1956 169.075 2.46227C165.342 0.462271 163.875 0.195604 163.875 1.52894Z" fill="#163655"/>
<path d="M185.475 3.26212C182.275 5.12879 179.875 6.99545 180.275 7.26212C181.342 8.32879 191.875 3.26212 191.875 1.52879C191.875 -0.737879 192.275 -0.737879 185.475 3.26212Z" fill="#163655"/>
<path d="M159.875 16.9957C159.875 28.329 160.008 29.129 162.675 29.129C164.142 29.129 168.275 30.329 171.875 31.929L178.408 34.729L184.275 31.929C187.475 30.329 191.342 29.129 192.942 29.129C195.742 29.129 195.875 28.5957 195.875 16.9957V4.86234L191.608 5.79567C189.208 6.329 185.475 7.79567 183.208 8.99567C179.475 11.129 179.208 11.929 178.542 20.5957L177.742 29.7957L177.208 20.5957C176.542 11.929 176.275 11.129 172.542 8.99567C170.408 7.79567 166.542 6.329 164.275 5.79567L159.875 4.86234V16.9957Z" fill="#163655"/>
<path d="M264.942 34.9957C258.542 36.9957 257.742 37.9291 261.076 39.7957C263.742 41.1291 263.876 42.1957 263.876 71.9291C263.876 101.529 263.742 102.729 261.209 103.396C255.742 104.862 260.409 106.462 270.009 106.462C279.342 106.462 283.076 104.862 277.209 103.396C274.676 102.729 274.542 101.529 274.542 67.9291C274.542 28.9957 275.342 31.6624 264.942 34.9957Z" fill="#163655"/>
<path d="M337.209 34.7291C330.942 36.4624 329.742 37.9291 333.076 39.6624C335.742 41.1291 335.876 42.0624 335.876 71.1291C335.876 99.6624 335.742 101.129 333.209 102.729C328.542 105.662 330.276 106.462 340.542 106.462C350.942 106.462 352.142 105.929 348.276 102.996C346.142 101.529 345.876 97.9291 345.476 67.2624C345.209 41.6624 344.676 33.1291 343.476 33.2624C342.542 33.2624 339.742 33.9291 337.209 34.7291Z" fill="#163655"/>
<path d="M383.876 34.729C377.609 36.4623 376.409 37.929 379.742 39.6623C382.409 41.129 382.542 42.0624 382.542 73.7957C382.542 106.462 383.076 109.929 387.076 104.462C388.409 102.596 389.209 102.729 393.876 105.129C403.209 109.929 414.409 107.929 421.342 100.329C431.076 89.6624 429.742 68.329 418.809 60.4624C413.609 56.5957 402.809 56.8624 397.342 60.729C395.209 62.4624 392.942 63.7957 392.542 63.7957C392.142 63.7957 391.876 56.8624 391.876 48.4624C391.876 31.7957 392.142 32.329 383.876 34.729ZM412.409 66.8624C416.542 70.9957 418.676 81.2624 417.209 89.129C416.542 92.4624 416.009 95.529 415.876 95.929C415.876 96.4624 414.276 98.329 412.409 100.329C405.342 107.262 394.542 103.129 392.676 92.729C392.276 90.329 392.276 83.929 392.676 78.4624C393.209 70.4624 393.876 67.929 396.009 66.0624C400.142 62.729 408.542 63.129 412.409 66.8624Z" fill="#163655"/>
<path d="M360.142 38.7289C359.209 39.6622 358.542 41.5289 358.542 43.1289C358.542 44.7289 359.209 46.5956 360.142 47.5289C361.075 48.4622 362.942 49.1289 364.542 49.1289C366.142 49.1289 368.009 48.4622 368.942 47.5289C369.875 46.5956 370.542 44.7289 370.542 43.1289C370.542 41.5289 369.875 39.6622 368.942 38.7289C368.009 37.7956 366.142 37.1289 364.542 37.1289C362.942 37.1289 361.075 37.7956 360.142 38.7289Z" fill="#163655"/>
<path d="M225.875 58.9957C208.675 66.5957 206.942 95.6624 223.208 104.729C229.608 108.329 238.275 108.729 244.675 105.662C249.742 103.262 254.542 97.3957 254.542 93.6624C254.542 91.6624 254.008 91.7957 250.808 94.8624C240.675 104.596 227.208 101.396 222.675 87.9291C219.475 78.3291 219.342 78.4624 237.875 78.4624H254.542V74.0624C254.542 61.3957 238.942 53.1291 225.875 58.9957ZM241.742 64.0624C242.808 65.7957 243.875 68.5957 244.142 70.4624C244.542 73.7957 244.408 73.7957 233.608 74.1957C223.075 74.5957 222.542 74.4624 222.542 71.7957C222.542 70.1957 224.275 67.1291 226.408 64.9957C231.475 60.0624 238.808 59.5291 241.742 64.0624Z" fill="#163655"/>
<path d="M296.275 59.7957C278.809 68.729 279.209 98.5957 296.809 105.929C306.409 109.929 316.409 107.529 323.075 99.7957C328.275 93.529 327.609 90.5957 322.009 95.529C315.742 100.996 310.409 101.929 304.275 98.8623C298.009 95.7957 294.542 90.9957 293.609 84.0623L292.809 78.4623H309.742C325.742 78.4623 326.542 78.329 326.542 75.7957C326.542 71.529 323.209 64.729 319.342 61.2623C314.409 56.5957 303.875 55.929 296.275 59.7957ZM311.342 62.1957C313.475 63.6623 315.875 68.5957 315.875 71.6623C315.875 74.329 315.075 74.4623 304.542 74.4623C297.475 74.4623 293.209 73.929 293.209 73.129C293.209 70.4623 297.209 63.929 299.475 62.5957C302.275 60.9957 309.209 60.729 311.342 62.1957Z" fill="#163655"/>
<path d="M363.075 59.1291C354.808 61.5291 353.875 62.4624 357.075 64.7291C359.608 66.4624 359.875 67.9291 359.875 83.3957C359.875 98.8624 359.608 100.596 356.942 103.396L354.142 106.462H364.275C374.808 106.462 376.142 105.929 372.408 103.129C370.542 101.796 370.275 98.4624 370.408 80.0624C370.542 68.3291 370.142 58.3291 369.608 58.0624C368.942 57.6624 366.142 58.1957 363.075 59.1291Z" fill="#163655"/>
<path d="M439.875 59.5291C432.142 62.0624 432.275 62.0624 435.609 65.1291C438.275 67.6624 438.542 69.1291 438.542 84.4624C438.542 99.6624 438.275 101.262 435.875 102.729C431.209 105.662 432.942 106.462 443.875 106.462C450.142 106.462 454.542 105.929 454.542 105.129C454.542 104.329 453.609 103.796 452.542 103.796C448.809 103.796 447.609 98.5957 448.142 84.8624C448.542 72.5957 448.809 71.3957 451.875 68.8624C454.409 66.8624 456.275 66.4624 460.142 66.9957C465.209 67.7957 465.209 67.7957 465.209 63.2624C465.209 60.7291 464.542 58.1957 463.875 57.7957C460.809 55.9291 454.409 58.7291 451.209 63.5291L447.875 68.4624V63.5291C447.875 60.8624 447.475 58.3291 446.942 58.0624C446.275 57.7957 443.209 58.3291 439.875 59.5291Z" fill="#163655"/>
<path d="M477.609 59.7953C468.276 63.9287 466.142 73.1287 474.542 73.1287C477.876 73.1287 478.542 72.5953 478.542 69.7953C478.542 67.9287 479.742 65.262 481.209 63.7953C487.209 57.7953 495.876 62.462 495.876 71.662V76.862L486.542 79.662C468.942 84.9953 462.942 94.9953 471.742 103.929C477.742 109.929 486.409 109.129 494.276 102.062C496.542 99.9287 497.209 99.7953 497.209 101.395C497.209 104.062 501.476 107.795 504.676 107.795C507.742 107.795 513.209 104.195 513.209 102.329C513.209 101.529 512.009 101.262 510.676 101.795C506.409 103.129 505.209 98.5953 505.209 82.5953C505.209 74.5953 504.542 66.462 503.742 64.7287C500.409 57.262 488.142 54.9953 477.609 59.7953ZM495.876 88.462C495.876 97.3953 492.942 101.129 486.009 101.129C480.942 101.129 478.276 98.5953 478.276 93.7953C478.276 89.3953 480.676 86.5953 487.209 83.662C495.476 80.062 495.876 80.1953 495.876 88.462Z" fill="#163655"/>
<path d="M522.542 59.5291C514.809 62.0624 514.942 62.0624 518.276 65.1291C520.942 67.6624 521.209 69.1291 521.209 84.4624C521.209 99.6624 520.942 101.262 518.542 102.729C513.876 105.662 515.609 106.462 526.542 106.462C532.809 106.462 537.209 105.929 537.209 105.129C537.209 104.329 536.276 103.796 535.209 103.796C531.876 103.796 530.542 98.9957 530.542 87.1291C530.542 70.4624 534.676 64.4624 544.542 66.9957C547.209 67.6624 547.876 67.3957 547.876 65.2624C547.876 63.7957 548.276 61.7957 548.676 60.5957C549.876 57.5291 543.609 56.4624 538.676 58.9957C536.409 60.1957 533.742 62.8624 532.676 64.8624L530.676 68.4624L530.542 63.5291C530.542 60.8624 530.142 58.3291 529.609 58.0624C528.942 57.7957 525.876 58.3291 522.542 59.5291Z" fill="#163655"/>
<path d="M550.542 58.9957C550.542 59.3957 551.875 61.1291 553.609 62.9957C555.209 64.8624 560.409 75.3957 565.075 86.5957L573.742 106.862L570.409 112.996C567.342 118.862 566.942 119.129 560.942 119.529C554.942 119.929 554.542 120.196 554.542 123.662C554.542 130.596 564.809 129.929 570.142 122.729C571.609 120.729 577.742 106.862 584.009 91.7957C590.142 76.8624 596.275 63.6624 597.475 62.5957C601.342 59.2624 600.275 58.4624 592.542 58.4624C585.475 58.4624 582.942 59.9291 587.209 61.6624C588.275 62.0624 589.209 63.3957 589.209 64.7291C589.209 67.3957 579.609 93.1291 578.542 93.1291C577.742 93.1291 568.409 70.9957 567.209 66.0624C566.542 63.3957 566.809 62.3291 568.409 61.6624C573.209 59.7957 570.009 58.4624 560.542 58.4624C555.075 58.4624 550.542 58.7291 550.542 58.9957Z" fill="#163655"/>
<path d="M122.675 95.3956C122.542 100.996 125.742 115.796 129.208 125.662C130.675 130.062 131.875 134.996 131.875 136.596C131.875 139.396 132.142 139.662 135.208 138.196C139.875 136.062 139.475 131.529 133.742 119.396C131.075 113.796 127.608 105.262 125.875 100.196C123.208 92.7289 122.675 91.9289 122.675 95.3956Z" fill="#163655"/>
</svg>
